<svg width="417" height="36" viewBox="0 0 417 36" fill="none" xmlns="http://www.w3.org/2000/svg">
<path d="M5.28343 35.6583V30.7211H0.291429V5.37714H5.28343V0.385143H20.7531V5.37714H25.8V10.8629H20.2046V5.92571H5.832V15.3063H15.816V20.7371H5.832V30.1726H20.2046V25.1806H25.8V30.7211H20.7531V35.6583H5.28343ZM37.4263 35.6583V30.7211H32.4343V15.3063H37.4263V10.3143H52.896V15.3063H57.9429V30.1726H62.9349V35.6583H57.3943V30.7211H52.896V35.6583H37.4263ZM37.9749 30.1726H52.3474V15.8H37.9749V30.1726ZM69.5593 35.6583V15.3063H74.5513V10.3143H90.021V15.3063H95.0679V20.7371H89.4724V15.8H75.0999V35.6583H69.5593ZM111.631 35.6583V30.7211H106.694V15.8H101.702V10.3143H106.694V0.385143H112.18V10.3143H127.211V15.8H112.18V30.1726H126.662V25.1806H132.203V30.7211H127.211V35.6583H111.631ZM137.756 35.6583V0.385143H143.296V15.3063H147.685V10.3143H158.217V15.3063H163.264V35.6583H157.669V15.8H148.233V20.7371H143.296V35.6583H137.756ZM190.81 35.6583V30.7211H185.873V20.7371H180.881V0.385143H186.421V20.1886H191.358V30.1726H195.857V20.1886H200.794V0.385143H206.389V20.7371H201.342V30.7211H196.405V35.6583H190.81ZM213.024 35V29.4594H218.564V35H213.024ZM230.176 35.6583V30.7211H225.184V25.1806H230.725V30.1726H245.097V20.7371H230.176V15.8H225.184V5.37714H230.176V0.385143H245.646V5.37714H250.693V10.8629H245.097V5.92571H230.725V15.3063H245.646V20.1886H250.693V30.7211H245.646V35.6583H230.176ZM257.327 35V29.4594H262.868V35H257.327ZM280.47 35.6583V5.37714H285.462V0.385143H290.948V5.37714H295.995V15.3063H300.383V5.37714H305.43V0.385143H310.971V5.37714H315.908V35.6583H310.422V5.92571H305.979V15.8H300.932V30.7211H295.446V15.8H290.399V5.92571H286.011V35.6583H280.47ZM327.516 35.6583V30.7211H322.524V15.3063H327.516V10.3143H342.985V15.3063H348.032V30.1726H353.024V35.6583H347.484V30.7211H342.985V35.6583H327.516ZM328.064 30.1726H342.437V15.8H328.064V30.1726ZM359.649 35.6583V15.3063H364.641V10.3143H380.11V15.3063H385.157V20.7371H379.562V15.8H365.189V35.6583H359.649ZM390.72 35.6583V30.1726H410.633V25.7291H395.712V20.7371H390.72V15.3063H395.712V10.3143H416.229V15.8H396.261V20.1886H411.182V25.1806H416.229V30.7211H411.182V35.6583H390.72Z" fill="white"/>
</svg>
